<svg width="32" height="32" viewBox="0 0 32 32" fill="none" xmlns="http://www.w3.org/2000/svg">
<path fill-rule="evenodd" clip-rule="evenodd" d="M16 32C24.8366 32 32 24.8366 32 16C32 12.5098 30.8825 9.2807 28.9858 6.65084C29.9408 8.3236 30.4866 10.2602 30.4866 12.3243C30.4866 18.6532 25.356 23.7838 19.0271 23.7838C12.6982 23.7838 7.56764 18.6532 7.56764 12.3243C7.56764 5.99545 12.6982 0.864872 19.0271 0.864872C20.3118 0.864872 21.5471 1.07627 22.7001 1.46616C20.662 0.525036 18.3923 0 16 0C7.16344 0 0 7.16344 0 16C0 24.8366 7.16344 32 16 32Z" fill="#00ACA8"/>
</svg>
