<svg width="212" height="33" viewBox="0 0 212 33" fill="none" xmlns="http://www.w3.org/2000/svg">
<path fill-rule="evenodd" clip-rule="evenodd" d="M16 32C24.8366 32 32 24.8366 32 16C32 12.5098 30.8825 9.2807 28.9858 6.65084C29.9408 8.3236 30.4866 10.2602 30.4866 12.3243C30.4866 18.6532 25.356 23.7838 19.0271 23.7838C12.6982 23.7838 7.56764 18.6532 7.56764 12.3243C7.56764 5.99545 12.6982 0.864872 19.0271 0.864872C20.3118 0.864872 21.5471 1.07627 22.7001 1.46616C20.662 0.525036 18.3923 0 16 0C7.16344 0 0 7.16344 0 16C0 24.8366 7.16344 32 16 32Z" fill="#00ACA8"/>
<path fill-rule="evenodd" clip-rule="evenodd" d="M22.0542 14.7027C25.5172 14.7027 28.3245 11.8954 28.3245 8.43244C28.3245 4.96947 25.5172 2.16217 22.0542 2.16217C18.5912 2.16217 15.7839 4.96947 15.7839 8.43244C15.7839 11.8954 18.5912 14.7027 22.0542 14.7027ZM22.2705 10.8108C23.584 10.8108 24.6488 9.74598 24.6488 8.43244C24.6488 7.1189 23.584 6.05406 22.2705 6.05406C20.9569 6.05406 19.8921 7.1189 19.8921 8.43244C19.8921 9.74598 20.9569 10.8108 22.2705 10.8108Z" fill="#8A2BE2"/>
<path d="M43.2828 1.86305V16.5H40.0156V1.86305H43.2828ZM48.842 7.94503V16.5H45.6955V5.62282H48.651L48.842 7.94503ZM48.4299 10.6794L47.6458 10.6995C47.6458 9.88187 47.7463 9.14802 47.9473 8.49793C48.1484 7.84785 48.4332 7.29494 48.8018 6.83921C49.1771 6.37678 49.6228 6.02493 50.1389 5.78366C50.6616 5.54239 51.238 5.42176 51.8679 5.42176C52.3773 5.42176 52.8431 5.49548 53.2653 5.64292C53.6875 5.79036 54.0494 6.02828 54.351 6.35667C54.6593 6.67837 54.8939 7.10729 55.0547 7.64344C55.2155 8.17289 55.296 8.82632 55.296 9.60375V16.5H52.1394V9.59369C52.1394 9.13796 52.0757 8.78611 51.9484 8.53814C51.821 8.29017 51.6334 8.11592 51.3854 8.01539C51.1441 7.91487 50.8493 7.8646 50.5008 7.8646C50.1322 7.8646 49.8172 7.93832 49.5558 8.08576C49.2944 8.2265 49.08 8.42421 48.9124 8.67888C48.7449 8.93356 48.6209 9.23179 48.5405 9.57359C48.4667 9.91538 48.4299 10.284 48.4299 10.6794ZM56.8944 11.172V10.9609C56.8944 10.1634 57.0083 9.4295 57.2362 8.75931C57.464 8.08241 57.7991 7.496 58.2415 7.00006C58.6838 6.50412 59.2266 6.11876 59.87 5.84398C60.5134 5.5625 61.2506 5.42176 62.0816 5.42176C62.9261 5.42176 63.67 5.5625 64.3134 5.84398C64.9635 6.11876 65.5097 6.50412 65.952 7.00006C66.3943 7.496 66.7294 8.08241 66.9573 8.75931C67.1851 9.4295 67.2991 10.1634 67.2991 10.9609V11.172C67.2991 11.9628 67.1851 12.6967 66.9573 13.3736C66.7294 14.0438 66.3943 14.6302 65.952 15.1328C65.5097 15.6288 64.9668 16.0141 64.3234 16.2889C63.68 16.5637 62.9395 16.7011 62.1018 16.7011C61.2707 16.7011 60.5302 16.5637 59.8801 16.2889C59.23 16.0141 58.6838 15.6288 58.2415 15.1328C57.7991 14.6302 57.464 14.0438 57.2362 13.3736C57.0083 12.6967 56.8944 11.9628 56.8944 11.172ZM60.0409 10.9609V11.172C60.0409 11.6009 60.0744 12.003 60.1414 12.3783C60.2152 12.7536 60.3324 13.082 60.4933 13.3635C60.6541 13.645 60.8652 13.8662 61.1266 14.027C61.3947 14.1811 61.7197 14.2582 62.1018 14.2582C62.4838 14.2582 62.8054 14.1811 63.0668 14.027C63.3282 13.8662 63.5393 13.645 63.7002 13.3635C63.861 13.082 63.9749 12.7536 64.042 12.3783C64.1157 12.003 64.1525 11.6009 64.1525 11.172V10.9609C64.1525 10.5387 64.1157 10.1432 64.042 9.77464C63.9749 9.39934 63.861 9.06759 63.7002 8.77941C63.5393 8.49123 63.3248 8.26672 63.0568 8.10587C62.7954 7.94503 62.4704 7.8646 62.0816 7.8646C61.7063 7.8646 61.388 7.94503 61.1266 8.10587C60.8652 8.26672 60.6541 8.49123 60.4933 8.77941C60.3324 9.06759 60.2152 9.39934 60.1414 9.77464C60.0744 10.1432 60.0409 10.5387 60.0409 10.9609ZM72.5969 14.2783L74.8689 5.62282H78.1662L74.5572 16.5H72.5768L72.5969 14.2783ZM71.1292 5.62282L73.3911 14.2884L73.4112 16.5H71.4308L67.8218 5.62282H71.1292ZM84.9217 13.9064V9.24184C84.9217 8.91345 84.8715 8.63197 84.7709 8.3974C84.6704 8.16284 84.5129 7.97853 84.2984 7.8445C84.084 7.71046 83.8059 7.64344 83.4641 7.64344C83.1759 7.64344 82.9246 7.6937 82.7101 7.79423C82.5023 7.89476 82.3415 8.03885 82.2276 8.2265C82.1203 8.41416 82.0667 8.64537 82.0667 8.92015H78.9302C78.9302 8.43091 79.0408 7.97518 79.262 7.55296C79.4831 7.13074 79.7981 6.75879 80.2069 6.4371C80.6225 6.11541 81.1184 5.86744 81.6948 5.69319C82.2711 5.51224 82.9179 5.42176 83.635 5.42176C84.4861 5.42176 85.2434 5.56585 85.9069 5.85403C86.5771 6.13551 87.1065 6.56108 87.4952 7.13074C87.884 7.6937 88.0783 8.40411 88.0783 9.26195V13.8159C88.0783 14.4727 88.1152 14.9887 88.1889 15.364C88.2693 15.7326 88.3833 16.0543 88.5307 16.3291V16.5H85.364C85.2166 16.185 85.106 15.7963 85.0323 15.3339C84.9586 14.8647 84.9217 14.3889 84.9217 13.9064ZM85.3138 9.86512L85.3339 11.5942H83.7757C83.4272 11.5942 83.1256 11.6378 82.8709 11.7249C82.623 11.812 82.4219 11.9327 82.2678 12.0868C82.1136 12.2342 81.9997 12.4085 81.926 12.6095C81.859 12.8039 81.8254 13.0184 81.8254 13.2529C81.8254 13.4741 81.8791 13.6751 81.9863 13.8561C82.0935 14.0303 82.241 14.1677 82.4286 14.2683C82.6163 14.3688 82.8341 14.4191 83.082 14.4191C83.4909 14.4191 83.8394 14.3386 84.1275 14.1778C84.4224 14.0169 84.6503 13.8226 84.8111 13.5947C84.972 13.3602 85.0524 13.1423 85.0524 12.9413L85.8064 14.2482C85.6857 14.5162 85.5383 14.7944 85.364 15.0825C85.1898 15.364 84.9686 15.6288 84.7006 15.8767C84.4325 16.118 84.1074 16.3157 83.7254 16.4698C83.3501 16.624 82.8977 16.7011 82.3683 16.7011C81.6847 16.7011 81.0648 16.5637 80.5085 16.2889C79.9523 16.0074 79.5066 15.6221 79.1715 15.1328C78.8431 14.6436 78.6789 14.0806 78.6789 13.4439C78.6789 12.8743 78.7828 12.3683 78.9905 11.926C79.1983 11.4836 79.5099 11.1083 79.9255 10.8C80.3477 10.4917 80.8771 10.2605 81.5138 10.1064C82.1505 9.94554 82.8944 9.86512 83.7455 9.86512H85.3138ZM97.8899 12.6397C97.8899 12.3917 97.853 12.1706 97.7793 11.9762C97.7056 11.7752 97.5716 11.5909 97.3772 11.4233C97.1828 11.2558 96.9081 11.0882 96.5529 10.9207C96.1977 10.7464 95.7319 10.5688 95.1555 10.3879C94.4987 10.1734 93.8721 9.93214 93.2756 9.66406C92.6859 9.38928 92.1598 9.07094 91.6973 8.70904C91.2349 8.34714 90.8697 7.92492 90.6016 7.44238C90.3402 6.95985 90.2095 6.39689 90.2095 5.7535C90.2095 5.13023 90.3469 4.56727 90.6217 4.06463C90.8965 3.56198 91.2818 3.13306 91.7778 2.77786C92.2737 2.41596 92.8568 2.14118 93.527 1.95353C94.1971 1.75917 94.9344 1.66199 95.7386 1.66199C96.8109 1.66199 97.7525 1.853 98.5634 2.23501C99.3811 2.61031 100.018 3.13976 100.473 3.82336C100.929 4.50025 101.157 5.28772 101.157 6.18578H97.8999C97.8999 5.79036 97.8162 5.44187 97.6486 5.14028C97.4878 4.83199 97.2398 4.59072 96.9047 4.41647C96.5763 4.24223 96.1642 4.1551 95.6682 4.1551C95.1857 4.1551 94.7802 4.22882 94.4518 4.37626C94.1301 4.517 93.8855 4.71136 93.718 4.95933C93.5571 5.2073 93.4767 5.47873 93.4767 5.77361C93.4767 6.00818 93.537 6.22264 93.6576 6.41699C93.785 6.60465 93.9659 6.78225 94.2005 6.94979C94.4418 7.11064 94.7367 7.26478 95.0851 7.41222C95.4336 7.55967 95.8324 7.70041 96.2814 7.83444C97.0656 8.08241 97.7592 8.35719 98.3624 8.65878C98.9723 8.96036 99.4849 9.30216 99.9005 9.68417C100.316 10.0662 100.628 10.4984 100.835 10.981C101.05 11.4635 101.157 12.0097 101.157 12.6196C101.157 13.2697 101.03 13.846 100.775 14.3487C100.527 14.8513 100.165 15.2803 99.6894 15.6355C99.2202 15.984 98.6573 16.2487 98.0005 16.4296C97.3437 16.6106 96.6098 16.7011 95.7989 16.7011C95.0617 16.7011 94.3345 16.6072 93.6174 16.4196C92.9003 16.2252 92.2502 15.9303 91.6672 15.5349C91.0908 15.1395 90.6284 14.6369 90.2799 14.027C89.9381 13.4104 89.7672 12.6799 89.7672 11.8355H93.0444C93.0444 12.2778 93.1081 12.6531 93.2354 12.9614C93.3628 13.263 93.5437 13.5076 93.7783 13.6953C94.0195 13.8829 94.3111 14.0169 94.6529 14.0974C94.9947 14.1778 95.3767 14.218 95.7989 14.218C96.2881 14.218 96.6836 14.151 96.9851 14.0169C97.2934 13.8762 97.5213 13.6852 97.6687 13.4439C97.8162 13.2027 97.8899 12.9346 97.8899 12.6397ZM109.31 13.8762V5.62282H112.467V16.5H109.511L109.31 13.8762ZM109.642 11.6545L110.506 11.6344C110.506 12.3649 110.419 13.0385 110.245 13.655C110.077 14.2716 109.823 14.8078 109.481 15.2635C109.146 15.7192 108.727 16.0744 108.224 16.3291C107.728 16.5771 107.149 16.7011 106.485 16.7011C105.949 16.7011 105.456 16.6273 105.007 16.4799C104.565 16.3258 104.183 16.0878 103.861 15.7661C103.54 15.4377 103.292 15.0189 103.117 14.5095C102.943 13.9935 102.856 13.3769 102.856 12.6598V5.62282H105.992V12.6799C105.992 12.9614 106.026 13.2027 106.093 13.4037C106.167 13.5981 106.264 13.7589 106.385 13.8863C106.512 14.0136 106.666 14.1074 106.847 14.1677C107.035 14.2281 107.239 14.2582 107.46 14.2582C108.016 14.2582 108.452 14.1443 108.767 13.9164C109.089 13.6819 109.313 13.3702 109.441 12.9815C109.575 12.5861 109.642 12.1438 109.642 11.6545ZM117.654 7.90481V16.5H114.517V5.62282H117.463L117.654 7.90481ZM117.252 10.6794L116.458 10.6995C116.458 9.93549 116.548 9.23514 116.729 8.59846C116.917 7.95508 117.188 7.39547 117.543 6.91963C117.898 6.4438 118.337 6.0752 118.86 5.81382C119.39 5.55245 119.999 5.42176 120.69 5.42176C121.172 5.42176 121.611 5.49548 122.007 5.64292C122.402 5.78366 122.741 6.00818 123.022 6.31646C123.31 6.61805 123.531 7.01346 123.686 7.5027C123.84 7.98524 123.917 8.56495 123.917 9.24184V16.5H120.78V9.62385C120.78 9.14131 120.72 8.77606 120.599 8.52809C120.485 8.27342 120.318 8.09917 120.097 8.00534C119.875 7.91152 119.611 7.8646 119.302 7.8646C118.967 7.8646 118.669 7.93832 118.408 8.08576C118.153 8.2265 117.939 8.42421 117.764 8.67888C117.59 8.93356 117.459 9.23179 117.372 9.57359C117.292 9.91538 117.252 10.284 117.252 10.6794ZM123.595 10.5186L122.6 10.599C122.6 9.86177 122.687 9.17817 122.861 8.5482C123.035 7.91822 123.297 7.37201 123.645 6.90958C123.994 6.44045 124.426 6.0752 124.942 5.81382C125.465 5.55245 126.071 5.42176 126.762 5.42176C127.271 5.42176 127.733 5.49548 128.149 5.64292C128.571 5.79036 128.933 6.02828 129.235 6.35667C129.543 6.68507 129.781 7.11734 129.948 7.65349C130.116 8.18294 130.2 8.83303 130.2 9.60375V16.5H127.043V9.60375C127.043 9.12791 126.983 8.76601 126.862 8.51804C126.748 8.27007 126.581 8.09917 126.36 8.00534C126.145 7.91152 125.887 7.8646 125.585 7.8646C125.25 7.8646 124.959 7.93497 124.711 8.07571C124.463 8.20975 124.255 8.3974 124.088 8.63867C123.92 8.87324 123.796 9.15137 123.716 9.47306C123.635 9.79475 123.595 10.1432 123.595 10.5186ZM135.447 7.90481V16.5H132.311V5.62282H135.256L135.447 7.90481ZM135.045 10.6794L134.251 10.6995C134.251 9.93549 134.342 9.23514 134.522 8.59846C134.71 7.95508 134.982 7.39547 135.337 6.91963C135.692 6.4438 136.131 6.0752 136.654 5.81382C137.183 5.55245 137.793 5.42176 138.483 5.42176C138.966 5.42176 139.405 5.49548 139.8 5.64292C140.196 5.78366 140.534 6.00818 140.816 6.31646C141.104 6.61805 141.325 7.01346 141.479 7.5027C141.633 7.98524 141.71 8.56495 141.71 9.24184V16.5H138.574V9.62385C138.574 9.14131 138.513 8.77606 138.393 8.52809C138.279 8.27342 138.111 8.09917 137.89 8.00534C137.669 7.91152 137.404 7.8646 137.096 7.8646C136.761 7.8646 136.463 7.93832 136.201 8.08576C135.947 8.2265 135.732 8.42421 135.558 8.67888C135.384 8.93356 135.253 9.23179 135.166 9.57359C135.085 9.91538 135.045 10.284 135.045 10.6794ZM141.389 10.5186L140.393 10.599C140.393 9.86177 140.48 9.17817 140.655 8.5482C140.829 7.91822 141.09 7.37201 141.439 6.90958C141.787 6.44045 142.22 6.0752 142.736 5.81382C143.258 5.55245 143.865 5.42176 144.555 5.42176C145.065 5.42176 145.527 5.49548 145.943 5.64292C146.365 5.79036 146.727 6.02828 147.028 6.35667C147.337 6.68507 147.574 7.11734 147.742 7.65349C147.91 8.18294 147.993 8.83303 147.993 9.60375V16.5H144.837V9.60375C144.837 9.12791 144.776 8.76601 144.656 8.51804C144.542 8.27007 144.374 8.09917 144.153 8.00534C143.939 7.91152 143.681 7.8646 143.379 7.8646C143.044 7.8646 142.752 7.93497 142.504 8.07571C142.256 8.20975 142.049 8.3974 141.881 8.63867C141.714 8.87324 141.59 9.15137 141.509 9.47306C141.429 9.79475 141.389 10.1432 141.389 10.5186ZM153.402 5.62282V16.5H150.255V5.62282H153.402ZM150.064 2.80802C150.064 2.35229 150.225 1.98033 150.547 1.69215C150.868 1.39727 151.291 1.24983 151.813 1.24983C152.336 1.24983 152.758 1.39727 153.08 1.69215C153.408 1.98033 153.573 2.35229 153.573 2.80802C153.573 3.25705 153.408 3.629 153.08 3.92389C152.758 4.21207 152.336 4.35616 151.813 4.35616C151.291 4.35616 150.868 4.21207 150.547 3.92389C150.225 3.629 150.064 3.25705 150.064 2.80802ZM161.193 5.62282V7.82439H154.739V5.62282H161.193ZM156.217 2.92865H159.363V13.0921C159.363 13.3937 159.4 13.6249 159.474 13.7857C159.547 13.9466 159.668 14.0605 159.836 14.1275C160.003 14.1878 160.218 14.218 160.479 14.218C160.667 14.218 160.827 14.2113 160.961 14.1979C161.096 14.1845 161.219 14.1677 161.333 14.1476V16.4196C161.065 16.5067 160.781 16.5737 160.479 16.6206C160.177 16.6742 159.849 16.7011 159.494 16.7011C158.817 16.7011 158.23 16.5905 157.735 16.3693C157.245 16.1482 156.87 15.7997 156.609 15.3238C156.347 14.8413 156.217 14.2147 156.217 13.4439V2.92865Z" fill="black"/>
<path d="M42.4905 28.8257C42.4905 28.7114 42.4729 28.6089 42.4377 28.5181C42.4055 28.4243 42.344 28.3394 42.2532 28.2632C42.1624 28.1841 42.0349 28.1064 41.8708 28.0303C41.7068 27.9541 41.4944 27.875 41.2336 27.793C40.9436 27.6992 40.6682 27.5938 40.4075 27.4766C40.1497 27.3594 39.9211 27.2231 39.7219 27.0679C39.5256 26.9097 39.3704 26.7266 39.2561 26.5186C39.1448 26.3105 39.0891 26.0688 39.0891 25.7935C39.0891 25.5269 39.1477 25.2852 39.2649 25.0684C39.3821 24.8486 39.5461 24.6611 39.7571 24.5059C39.968 24.3477 40.217 24.2261 40.5042 24.1411C40.7942 24.0562 41.1121 24.0137 41.4578 24.0137C41.9294 24.0137 42.3411 24.0986 42.6926 24.2686C43.0442 24.4385 43.3167 24.6714 43.51 24.9673C43.7063 25.2632 43.8044 25.6016 43.8044 25.9824H42.4949C42.4949 25.7949 42.4553 25.6309 42.3762 25.4902C42.3 25.3467 42.1829 25.2339 42.0247 25.1519C41.8694 25.0698 41.6731 25.0288 41.4358 25.0288C41.2073 25.0288 41.0168 25.064 40.8645 25.1343C40.7122 25.2017 40.5979 25.2939 40.5217 25.4111C40.4456 25.5254 40.4075 25.6543 40.4075 25.7979C40.4075 25.9062 40.4338 26.0044 40.4866 26.0923C40.5422 26.1802 40.6243 26.2622 40.7327 26.3384C40.8411 26.4146 40.9744 26.4863 41.1326 26.5537C41.2908 26.6211 41.4739 26.687 41.6819 26.7515C42.0305 26.8569 42.3367 26.9756 42.6003 27.1074C42.8669 27.2393 43.0896 27.3872 43.2683 27.5513C43.447 27.7153 43.5818 27.9014 43.6726 28.1094C43.7634 28.3174 43.8088 28.5532 43.8088 28.8169C43.8088 29.0952 43.7546 29.3442 43.6462 29.564C43.5378 29.7837 43.3811 29.9697 43.176 30.1221C42.9709 30.2744 42.7263 30.3901 42.4421 30.4692C42.158 30.5483 41.8401 30.5879 41.4885 30.5879C41.1721 30.5879 40.8601 30.5469 40.5525 30.4648C40.2449 30.3799 39.9651 30.2524 39.7131 30.0825C39.4641 29.9126 39.2649 29.6958 39.1155 29.4321C38.9661 29.1685 38.8914 28.8564 38.8914 28.4961H40.2141C40.2141 28.6953 40.2449 28.8638 40.3064 29.0015C40.3679 29.1392 40.4543 29.2505 40.5657 29.3354C40.6799 29.4204 40.8147 29.4819 40.97 29.52C41.1282 29.5581 41.301 29.5771 41.4885 29.5771C41.717 29.5771 41.9045 29.5449 42.051 29.4805C42.2004 29.416 42.3103 29.3267 42.3806 29.2124C42.4539 29.0981 42.4905 28.9692 42.4905 28.8257ZM47.3069 25.1958L45.5667 30.5H44.1648L46.5422 24.1016H47.4343L47.3069 25.1958ZM48.7527 30.5L47.0081 25.1958L46.8674 24.1016H47.7683L50.1589 30.5H48.7527ZM48.6736 28.1182V29.1509H45.2942V28.1182H48.6736ZM48.0891 22.4097L48.8186 22.458C48.8186 22.6719 48.7761 22.8667 48.6912 23.0425C48.6062 23.2153 48.489 23.3545 48.3396 23.46C48.1902 23.5625 48.0188 23.6138 47.8254 23.6138C47.6848 23.6138 47.5632 23.5947 47.4607 23.5566C47.3611 23.5186 47.2688 23.4746 47.1838 23.4248C47.0989 23.3721 47.011 23.3267 46.9202 23.2886C46.8323 23.2505 46.7312 23.2314 46.6169 23.2314C46.5144 23.2314 46.4265 23.2681 46.3533 23.3413C46.283 23.4146 46.2478 23.52 46.2478 23.6577L45.5139 23.6182C45.5139 23.4072 45.5564 23.2139 45.6414 23.0381C45.7263 22.8623 45.8435 22.7217 45.9929 22.6162C46.1423 22.5078 46.3123 22.4536 46.5027 22.4536C46.6228 22.4536 46.7327 22.4741 46.8323 22.5151C46.9319 22.5532 47.0271 22.5972 47.1179 22.647C47.2117 22.6968 47.3069 22.7407 47.4036 22.7788C47.5002 22.8169 47.6028 22.8359 47.7112 22.8359C47.8137 22.8359 47.9016 22.7993 47.9749 22.7261C48.051 22.6499 48.0891 22.5444 48.0891 22.4097ZM55.929 27.1514V27.4546C55.929 27.9409 55.863 28.3774 55.7312 28.7642C55.5994 29.1509 55.4133 29.4805 55.1731 29.7529C54.9329 30.0225 54.6458 30.229 54.3118 30.3726C53.9807 30.5161 53.613 30.5879 53.2087 30.5879C52.8074 30.5879 52.4397 30.5161 52.1057 30.3726C51.7747 30.229 51.4875 30.0225 51.2444 29.7529C51.0012 29.4805 50.8123 29.1509 50.6775 28.7642C50.5457 28.3774 50.4797 27.9409 50.4797 27.4546V27.1514C50.4797 26.6621 50.5457 26.2256 50.6775 25.8418C50.8093 25.4551 50.9954 25.1255 51.2356 24.853C51.4788 24.5806 51.7659 24.3726 52.0969 24.229C52.4309 24.0854 52.7986 24.0137 53.2 24.0137C53.6042 24.0137 53.9719 24.0854 54.303 24.229C54.637 24.3726 54.9241 24.5806 55.1643 24.853C55.4075 25.1255 55.595 25.4551 55.7268 25.8418C55.8616 26.2256 55.929 26.6621 55.929 27.1514ZM54.5974 27.4546V27.1426C54.5974 26.8027 54.5667 26.5039 54.5051 26.2461C54.4436 25.9883 54.3528 25.7715 54.2327 25.5957C54.1125 25.4199 53.9661 25.2881 53.7932 25.2002C53.6204 25.1094 53.4226 25.064 53.2 25.064C52.9773 25.064 52.7795 25.1094 52.6067 25.2002C52.4368 25.2881 52.2917 25.4199 52.1716 25.5957C52.0544 25.7715 51.9651 25.9883 51.9036 26.2461C51.842 26.5039 51.8113 26.8027 51.8113 27.1426V27.4546C51.8113 27.7915 51.842 28.0903 51.9036 28.3511C51.9651 28.6089 52.0559 28.8271 52.176 29.0059C52.2961 29.1816 52.4426 29.3149 52.6155 29.4058C52.7883 29.4966 52.9861 29.542 53.2087 29.542C53.4314 29.542 53.6292 29.4966 53.802 29.4058C53.9749 29.3149 54.1199 29.1816 54.2371 29.0059C54.3542 28.8271 54.4436 28.6089 54.5051 28.3511C54.5667 28.0903 54.5974 27.7915 54.5974 27.4546ZM61.6111 28.2192H59.9807V27.1909H61.6111C61.863 27.1909 62.0681 27.1499 62.2263 27.0679C62.3845 26.9829 62.5002 26.8657 62.5735 26.7163C62.6467 26.5669 62.6833 26.3984 62.6833 26.2109C62.6833 26.0205 62.6467 25.8433 62.5735 25.6792C62.5002 25.5151 62.3845 25.3833 62.2263 25.2837C62.0681 25.1841 61.863 25.1343 61.6111 25.1343H60.4377V30.5H59.1194V24.1016H61.6111C62.1121 24.1016 62.5413 24.1924 62.8987 24.374C63.259 24.5527 63.5344 24.8003 63.7249 25.1167C63.9153 25.4331 64.0105 25.7949 64.0105 26.2021C64.0105 26.6152 63.9153 26.9727 63.7249 27.2744C63.5344 27.5762 63.259 27.8091 62.8987 27.9731C62.5413 28.1372 62.1121 28.2192 61.6111 28.2192ZM66.7922 25.1958L65.052 30.5H63.6501L66.0276 24.1016H66.9197L66.7922 25.1958ZM68.238 30.5L66.4934 25.1958L66.3528 24.1016H67.2537L69.6443 30.5H68.238ZM68.1589 28.1182V29.1509H64.7795V28.1182H68.1589ZM73.6917 24.1016H75.0056V28.3291C75.0056 28.8213 74.9001 29.2358 74.6892 29.5728C74.4812 29.9097 74.1926 30.1631 73.8235 30.333C73.4573 30.5029 73.0354 30.5879 72.5579 30.5879C72.0803 30.5879 71.6555 30.5029 71.2834 30.333C70.9143 30.1631 70.6243 29.9097 70.4133 29.5728C70.2053 29.2358 70.1013 28.8213 70.1013 28.3291V24.1016H71.4197V28.3291C71.4197 28.6162 71.4651 28.8506 71.5559 29.0322C71.6467 29.2139 71.7771 29.3472 71.947 29.4321C72.1199 29.5171 72.3235 29.5596 72.5579 29.5596C72.7981 29.5596 73.0017 29.5171 73.1687 29.4321C73.3386 29.3472 73.4675 29.2139 73.5554 29.0322C73.6462 28.8506 73.6917 28.6162 73.6917 28.3291V24.1016ZM80.2043 29.4717V30.5H76.9832V29.4717H80.2043ZM77.4094 24.1016V30.5H76.0911V24.1016H77.4094ZM85.926 27.1514V27.4546C85.926 27.9409 85.8601 28.3774 85.7283 28.7642C85.5964 29.1509 85.4104 29.4805 85.1702 29.7529C84.9299 30.0225 84.6428 30.229 84.3088 30.3726C83.9778 30.5161 83.6101 30.5879 83.2058 30.5879C82.8044 30.5879 82.4368 30.5161 82.1028 30.3726C81.7717 30.229 81.4846 30.0225 81.2415 29.7529C80.9983 29.4805 80.8093 29.1509 80.6746 28.7642C80.5427 28.3774 80.4768 27.9409 80.4768 27.4546V27.1514C80.4768 26.6621 80.5427 26.2256 80.6746 25.8418C80.8064 25.4551 80.9924 25.1255 81.2327 24.853C81.4758 24.5806 81.7629 24.3726 82.094 24.229C82.428 24.0854 82.7957 24.0137 83.197 24.0137C83.6013 24.0137 83.969 24.0854 84.3 24.229C84.634 24.3726 84.9211 24.5806 85.1614 24.853C85.4045 25.1255 85.592 25.4551 85.7239 25.8418C85.8586 26.2256 85.926 26.6621 85.926 27.1514ZM84.5945 27.4546V27.1426C84.5945 26.8027 84.5637 26.5039 84.5022 26.2461C84.4407 25.9883 84.3499 25.7715 84.2297 25.5957C84.1096 25.4199 83.9631 25.2881 83.7903 25.2002C83.6174 25.1094 83.4197 25.064 83.197 25.064C82.9744 25.064 82.7766 25.1094 82.6038 25.2002C82.4338 25.2881 82.2888 25.4199 82.1687 25.5957C82.0515 25.7715 81.9622 25.9883 81.9006 26.2461C81.8391 26.5039 81.8083 26.8027 81.8083 27.1426V27.4546C81.8083 27.7915 81.8391 28.0903 81.9006 28.3511C81.9622 28.6089 82.053 28.8271 82.1731 29.0059C82.2932 29.1816 82.4397 29.3149 82.6125 29.4058C82.7854 29.4966 82.9832 29.542 83.2058 29.542C83.4285 29.542 83.6262 29.4966 83.7991 29.4058C83.9719 29.3149 84.1169 29.1816 84.2341 29.0059C84.3513 28.8271 84.4407 28.6089 84.5022 28.3511C84.5637 28.0903 84.5945 27.7915 84.5945 27.4546ZM91.5334 27.2568V28.25H89.0505V27.2568H91.5334ZM97.8616 24.0884V30.5H96.5959V25.5474L95.0754 26.0308V25.0332L97.7253 24.0884H97.8616ZM104.427 28.1094V29.1025H99.8171L99.7556 28.3335L102.423 24.1016H103.429L102.34 25.9253L101.012 28.1094H104.427ZM103.702 24.1016V30.5H102.436V24.1016H103.702ZM111.779 29.4717V30.5H108.373V29.4717H111.779ZM108.804 24.1016V30.5H107.486V24.1016H108.804ZM111.335 26.7075V27.7095H108.373V26.7075H111.335ZM111.775 24.1016V25.1343H108.373V24.1016H111.775ZM117.742 24.0884V30.5H116.477V25.5474L114.956 26.0308V25.0332L117.606 24.0884H117.742ZM121.016 27.5864L120.006 27.3447L120.37 24.1016H123.965V25.1255H121.412L121.254 26.5449C121.339 26.4951 121.468 26.4424 121.64 26.3867C121.813 26.3281 122.007 26.2988 122.22 26.2988C122.531 26.2988 122.806 26.3472 123.047 26.4438C123.287 26.5405 123.49 26.6812 123.657 26.8657C123.827 27.0503 123.956 27.2759 124.044 27.5425C124.132 27.8091 124.176 28.1108 124.176 28.4478C124.176 28.7319 124.132 29.0029 124.044 29.2607C123.956 29.5156 123.823 29.7441 123.644 29.9463C123.466 30.1455 123.241 30.3022 122.972 30.4165C122.702 30.5308 122.383 30.5879 122.014 30.5879C121.739 30.5879 121.472 30.5469 121.214 30.4648C120.959 30.3828 120.729 30.2612 120.524 30.1001C120.322 29.939 120.159 29.7441 120.036 29.5156C119.916 29.2842 119.853 29.0205 119.847 28.7246H121.104C121.122 28.9062 121.169 29.063 121.245 29.1948C121.324 29.3237 121.428 29.4233 121.557 29.4937C121.686 29.564 121.837 29.5991 122.01 29.5991C122.171 29.5991 122.308 29.5684 122.423 29.5068C122.537 29.4453 122.629 29.3604 122.699 29.252C122.77 29.1406 122.821 29.0117 122.853 28.8652C122.888 28.7158 122.906 28.5547 122.906 28.3818C122.906 28.209 122.885 28.0522 122.844 27.9116C122.803 27.771 122.74 27.6494 122.656 27.5469C122.571 27.4443 122.462 27.3652 122.33 27.3096C122.201 27.2539 122.051 27.2261 121.878 27.2261C121.643 27.2261 121.462 27.2627 121.333 27.3359C121.207 27.4092 121.101 27.4927 121.016 27.5864ZM129.331 30.5H127.938L127.947 29.4717H129.331C129.677 29.4717 129.968 29.394 130.205 29.2388C130.443 29.0806 130.621 28.8506 130.741 28.5488C130.865 28.2471 130.926 27.8823 130.926 27.4546V27.1426C130.926 26.8145 130.891 26.5259 130.821 26.2769C130.753 26.0278 130.652 25.8184 130.517 25.6484C130.383 25.4785 130.217 25.3511 130.021 25.2661C129.824 25.1782 129.599 25.1343 129.344 25.1343H127.911V24.1016H129.344C129.772 24.1016 130.163 24.1748 130.517 24.3213C130.875 24.4648 131.184 24.6714 131.445 24.9409C131.705 25.2104 131.906 25.5327 132.047 25.9077C132.19 26.2798 132.262 26.6943 132.262 27.1514V27.4546C132.262 27.9087 132.19 28.3232 132.047 28.6982C131.906 29.0732 131.705 29.3955 131.445 29.665C131.187 29.9316 130.878 30.1382 130.517 30.2847C130.16 30.4282 129.764 30.5 129.331 30.5ZM128.685 24.1016V30.5H127.366V24.1016H128.685ZM137.513 29.4717V30.5H134.108V29.4717H137.513ZM134.538 24.1016V30.5H133.22V24.1016H134.538ZM137.07 26.7075V27.7095H134.108V26.7075H137.07ZM137.509 24.1016V25.1343H134.108V24.1016H137.509ZM141.842 24.1016V30.5H140.524V24.1016H141.842ZM144.391 26.835V27.8633H141.482V26.835H144.391ZM144.698 24.1016V25.1343H141.482V24.1016H144.698ZM149.757 29.4717V30.5H146.351V29.4717H149.757ZM146.781 24.1016V30.5H145.463V24.1016H146.781ZM149.313 26.7075V27.7095H146.351V26.7075H149.313ZM149.752 24.1016V25.1343H146.351V24.1016H149.752ZM152.833 29.1641L154.34 24.1016H155.808L153.58 30.5H152.613L152.833 29.1641ZM151.444 24.1016L152.947 29.1641L153.176 30.5H152.2L149.985 24.1016H151.444ZM160.699 29.4717V30.5H157.293V29.4717H160.699ZM157.724 24.1016V30.5H156.406V24.1016H157.724ZM160.255 26.7075V27.7095H157.293V26.7075H160.255ZM160.695 24.1016V25.1343H157.293V24.1016H160.695ZM161.468 24.1016H163.854C164.344 24.1016 164.764 24.1748 165.115 24.3213C165.47 24.4678 165.742 24.6846 165.933 24.9717C166.123 25.2588 166.219 25.6118 166.219 26.0308C166.219 26.3735 166.16 26.668 166.043 26.9141C165.928 27.1572 165.766 27.3608 165.555 27.5249C165.347 27.686 165.102 27.8149 164.821 27.9116L164.404 28.1313H162.329L162.321 27.103H163.863C164.094 27.103 164.286 27.062 164.439 26.98C164.591 26.8979 164.705 26.7837 164.781 26.6372C164.861 26.4907 164.9 26.3208 164.9 26.1274C164.9 25.9224 164.862 25.7451 164.786 25.5957C164.71 25.4463 164.594 25.332 164.439 25.2529C164.283 25.1738 164.089 25.1343 163.854 25.1343H162.786V30.5H161.468V24.1016ZM165.045 30.5L163.586 27.6479L164.979 27.6392L166.456 30.4385V30.5H165.045ZM171.527 29.4717V30.5H168.121V29.4717H171.527ZM168.552 24.1016V30.5H167.234V24.1016H168.552ZM171.083 26.7075V27.7095H168.121V26.7075H171.083ZM171.523 24.1016V25.1343H168.121V24.1016H171.523ZM173.698 24.1016V30.5H172.384V24.1016H173.698ZM174.933 24.1016H177.319C177.808 24.1016 178.229 24.1748 178.58 24.3213C178.935 24.4678 179.207 24.6846 179.398 24.9717C179.588 25.2588 179.683 25.6118 179.683 26.0308C179.683 26.3735 179.625 26.668 179.508 26.9141C179.393 27.1572 179.231 27.3608 179.02 27.5249C178.812 27.686 178.567 27.8149 178.286 27.9116L177.868 28.1313H175.794L175.785 27.103H177.328C177.559 27.103 177.751 27.062 177.904 26.98C178.056 26.8979 178.17 26.7837 178.246 26.6372C178.325 26.4907 178.365 26.3208 178.365 26.1274C178.365 25.9224 178.327 25.7451 178.251 25.5957C178.175 25.4463 178.059 25.332 177.904 25.2529C177.748 25.1738 177.553 25.1343 177.319 25.1343H176.251V30.5H174.933V24.1016ZM178.51 30.5L177.051 27.6479L178.444 27.6392L179.921 30.4385V30.5H178.51ZM185.954 27.1514V27.4546C185.954 27.9409 185.888 28.3774 185.757 28.7642C185.625 29.1509 185.439 29.4805 185.198 29.7529C184.958 30.0225 184.671 30.229 184.337 30.3726C184.006 30.5161 183.638 30.5879 183.234 30.5879C182.833 30.5879 182.465 30.5161 182.131 30.3726C181.8 30.229 181.513 30.0225 181.27 29.7529C181.027 29.4805 180.838 29.1509 180.703 28.7642C180.571 28.3774 180.505 27.9409 180.505 27.4546V27.1514C180.505 26.6621 180.571 26.2256 180.703 25.8418C180.835 25.4551 181.021 25.1255 181.261 24.853C181.504 24.5806 181.791 24.3726 182.122 24.229C182.456 24.0854 182.824 24.0137 183.225 24.0137C183.63 24.0137 183.997 24.0854 184.328 24.229C184.662 24.3726 184.949 24.5806 185.19 24.853C185.433 25.1255 185.62 25.4551 185.752 25.8418C185.887 26.2256 185.954 26.6621 185.954 27.1514ZM184.623 27.4546V27.1426C184.623 26.8027 184.592 26.5039 184.531 26.2461C184.469 25.9883 184.378 25.7715 184.258 25.5957C184.138 25.4199 183.991 25.2881 183.819 25.2002C183.646 25.1094 183.448 25.064 183.225 25.064C183.003 25.064 182.805 25.1094 182.632 25.2002C182.462 25.2881 182.317 25.4199 182.197 25.5957C182.08 25.7715 181.99 25.9883 181.929 26.2461C181.867 26.5039 181.837 26.8027 181.837 27.1426V27.4546C181.837 27.7915 181.867 28.0903 181.929 28.3511C181.99 28.6089 182.081 28.8271 182.201 29.0059C182.322 29.1816 182.468 29.3149 182.641 29.4058C182.814 29.4966 183.011 29.542 183.234 29.542C183.457 29.542 183.655 29.4966 183.827 29.4058C184 29.3149 184.145 29.1816 184.262 29.0059C184.38 28.8271 184.469 28.6089 184.531 28.3511C184.592 28.0903 184.623 27.7915 184.623 27.4546ZM187.514 29.4321L187.51 30.2803C187.51 30.6055 187.428 30.9336 187.264 31.2646C187.103 31.5957 186.898 31.8667 186.649 32.0776L185.99 31.7393C186.063 31.6045 186.135 31.4697 186.205 31.335C186.275 31.2002 186.334 31.0522 186.381 30.8911C186.427 30.73 186.451 30.5469 186.451 30.3418V29.4321H187.514ZM195.095 29.5112V30.5H190.718V29.6562L192.788 27.437C192.996 27.2056 193.16 27.002 193.28 26.8262C193.4 26.6475 193.487 26.4878 193.539 26.3472C193.595 26.2036 193.623 26.0674 193.623 25.9385C193.623 25.7451 193.591 25.5796 193.526 25.4419C193.462 25.3013 193.366 25.1929 193.24 25.1167C193.117 25.0405 192.965 25.0024 192.783 25.0024C192.59 25.0024 192.423 25.0493 192.282 25.1431C192.145 25.2368 192.039 25.3672 191.966 25.5342C191.896 25.7012 191.861 25.8901 191.861 26.1011H190.591C190.591 25.7202 190.681 25.3716 190.863 25.0552C191.045 24.7358 191.301 24.4824 191.632 24.2949C191.963 24.1045 192.356 24.0093 192.81 24.0093C193.258 24.0093 193.636 24.0825 193.944 24.229C194.254 24.3726 194.489 24.5806 194.647 24.853C194.808 25.1226 194.888 25.4448 194.888 25.8198C194.888 26.0308 194.855 26.2373 194.787 26.4395C194.72 26.6387 194.623 26.8379 194.497 27.0371C194.374 27.2334 194.225 27.4326 194.049 27.6348C193.873 27.8369 193.678 28.0464 193.465 28.2632L192.353 29.5112H195.095ZM200.193 26.7383V27.8457C200.193 28.3262 200.141 28.7407 200.039 29.0894C199.936 29.4351 199.788 29.7192 199.595 29.9419C199.405 30.1616 199.177 30.3242 198.914 30.4297C198.65 30.5352 198.357 30.5879 198.035 30.5879C197.777 30.5879 197.537 30.5557 197.314 30.4912C197.092 30.4238 196.891 30.3198 196.712 30.1792C196.536 30.0386 196.384 29.8613 196.255 29.6475C196.129 29.4307 196.032 29.1729 195.965 28.874C195.898 28.5752 195.864 28.2324 195.864 27.8457V26.7383C195.864 26.2578 195.915 25.8462 196.018 25.5034C196.123 25.1577 196.271 24.875 196.462 24.6553C196.655 24.4355 196.884 24.2744 197.147 24.1719C197.411 24.0664 197.704 24.0137 198.026 24.0137C198.284 24.0137 198.523 24.0474 198.742 24.1147C198.965 24.1792 199.166 24.2803 199.344 24.418C199.523 24.5557 199.676 24.7329 199.802 24.9497C199.927 25.1636 200.024 25.4199 200.092 25.7188C200.159 26.0146 200.193 26.3545 200.193 26.7383ZM198.923 28.0127V26.5669C198.923 26.3354 198.909 26.1333 198.883 25.9604C198.86 25.7876 198.823 25.6411 198.773 25.521C198.723 25.3979 198.662 25.2983 198.589 25.2222C198.515 25.146 198.432 25.0903 198.338 25.0552C198.244 25.02 198.14 25.0024 198.026 25.0024C197.883 25.0024 197.755 25.0303 197.644 25.0859C197.535 25.1416 197.443 25.231 197.367 25.354C197.291 25.4741 197.232 25.6353 197.191 25.8374C197.153 26.0366 197.134 26.2798 197.134 26.5669V28.0127C197.134 28.2441 197.146 28.4478 197.169 28.6235C197.196 28.7993 197.234 28.9502 197.283 29.0762C197.336 29.1992 197.398 29.3003 197.468 29.3794C197.541 29.4556 197.625 29.5112 197.719 29.5464C197.815 29.5815 197.921 29.5991 198.035 29.5991C198.176 29.5991 198.3 29.5713 198.408 29.5156C198.52 29.457 198.614 29.3662 198.69 29.2432C198.769 29.1172 198.827 28.9531 198.865 28.751C198.904 28.5488 198.923 28.3027 198.923 28.0127ZM205.431 29.5112V30.5H201.054V29.6562L203.124 27.437C203.332 27.2056 203.496 27.002 203.616 26.8262C203.736 26.6475 203.823 26.4878 203.875 26.3472C203.931 26.2036 203.959 26.0674 203.959 25.9385C203.959 25.7451 203.927 25.5796 203.862 25.4419C203.798 25.3013 203.702 25.1929 203.576 25.1167C203.453 25.0405 203.301 25.0024 203.119 25.0024C202.926 25.0024 202.759 25.0493 202.618 25.1431C202.481 25.2368 202.375 25.3672 202.302 25.5342C202.232 25.7012 202.197 25.8901 202.197 26.1011H200.927C200.927 25.7202 201.017 25.3716 201.199 25.0552C201.381 24.7358 201.637 24.4824 201.968 24.2949C202.299 24.1045 202.692 24.0093 203.146 24.0093C203.594 24.0093 203.972 24.0825 204.28 24.229C204.59 24.3726 204.824 24.5806 204.983 24.853C205.144 25.1226 205.224 25.4448 205.224 25.8198C205.224 26.0308 205.191 26.2373 205.123 26.4395C205.056 26.6387 204.959 26.8379 204.833 27.0371C204.71 27.2334 204.561 27.4326 204.385 27.6348C204.209 27.8369 204.014 28.0464 203.801 28.2632L202.689 29.5112H205.431ZM210.704 28.1094V29.1025H206.094L206.033 28.3335L208.7 24.1016H209.707L208.617 25.9253L207.29 28.1094H210.704ZM209.979 24.1016V30.5H208.714V24.1016H209.979Z" fill="black"/>
</svg>
